<svg xmlns="http://www.w3.org/2000/svg" width="1400.001" height="151.765" viewBox="0 0 1400.001 151.765">
  <path id="Subtraction_1" data-name="Subtraction 1" d="M118,671.265h0V519.5H1518v59.947c-21.7,7.477-44.817,14.466-68.7,20.774-29.191,7.712-59.775,14.466-90.9,20.076-77.83,14.026-159.944,21.138-244.061,21.14-20.977,0-42.37-.447-63.584-1.33-22.146-.922-44.719-2.344-67.091-4.228-23.294-1.961-47.019-4.477-70.516-7.477-24.407-3.116-49.256-6.843-73.857-11.076s-49.433-7.957-73.84-11.073c-23.5-3-47.224-5.515-70.52-7.476-22.374-1.884-44.949-3.307-67.1-4.229-21.22-.884-42.611-1.332-63.579-1.332-233.046,0-389.714,54.581-446.255,78.048Z" transform="translate(-117.999 -519.5)" fill="#fff"/>
</svg>
