<?xml version="1.0" encoding="UTF-8"?>
<svg width="19px" height="14px" viewBox="0 0 19 14" version="1.1" xmlns="http://www.w3.org/2000/svg" xmlns:xlink="http://www.w3.org/1999/xlink">
    <!-- Generator: Sketch 51.3 (57544) - http://www.bohemiancoding.com/sketch -->
    <title>Group 33</title>
    <desc>Created with Sketch.</desc>
    <defs></defs>
    <g id="Page-1" stroke="none" stroke-width="1" fill="none" fill-rule="evenodd">
        <g id="Extra-large:-Desktops---12-col" transform="translate(-955.000000, -1617.000000)" fill="#4A4A4A" fill-rule="nonzero">
            <g id="Group-39" transform="translate(925.000000, 1493.000000)">
                <g id="Group-34" transform="translate(30.000000, 121.000000)">
                    <g id="Group-33" transform="translate(0.000000, 3.000000)">
                        <path d="M1.4,8.41746729 L2.03344482,8.41746729 C2.73649973,8.41746729 3.30643835,8.98740591 3.30643835,9.69046082 C3.30643835,9.88313055 3.26270409,10.0732869 3.17853182,10.2465977 L2.24396651,12.1708695 C1.93682056,12.8032836 2.2005025,13.5649475 2.83291659,13.8720935 C3.00622745,13.9562657 3.19638378,14 3.38905351,14 L4.54605903,14 C5.08215848,14 5.57118373,13.6938565 5.80539128,13.2116227 L7.99311151,8.70710246 C8.08568164,8.51650038 8.13377926,8.30737217 8.13377926,8.0954798 L8.13377926,1.44363551 C8.13377926,0.670436864 7.50697791,0.043635514 6.73377926,0.043635514 L1.4,0.043635514 C0.62680135,0.043635514 -5.38778735e-16,0.670436864 -4.4408921e-16,1.44363551 L0,7.01746729 C9.46895252e-17,7.79066594 0.62680135,8.41746729 1.4,8.41746729 Z" id="Shape"></path>
                        <path d="M10.8450602,1.44363551 L10.8450602,7.01746729 C10.8450602,7.79066594 11.4718616,8.41746729 12.2450602,8.41746729 L12.878505,8.41746729 C13.5815599,8.41746729 14.1514985,8.98740591 14.1514985,9.69046082 C14.1514985,9.88313055 14.1077643,10.0732869 14.023592,10.2465977 L13.0890267,12.1708695 C12.7818808,12.8032836 13.0455627,13.5649475 13.6779768,13.8720935 C13.8512877,13.9562657 14.041444,14 14.2341137,14 L15.3911192,14 C15.9272187,14 16.4162439,13.6938565 16.6504515,13.2116227 L18.8381717,8.70710246 C18.9307418,8.51650038 18.9788395,8.30737217 18.9788395,8.0954798 L18.9788395,1.44363551 C18.9788395,0.670436864 18.3520381,0.043635514 17.5788395,0.043635514 L12.2450602,0.043635514 C11.4718616,0.043635514 10.8450602,0.670436864 10.8450602,1.44363551 Z" id="Shape"></path>
                    </g>
                </g>
            </g>
        </g>
    </g>
</svg>