<svg version="1" xmlns="http://www.w3.org/2000/svg" width="177.333" height="177.333" viewBox="0 0 133.000000 133.000000"><path d="M35.7 31.8c-1 1-1.7 3-1.7 4.4 0 2.4.2 2.4 5.3 2 3.5-.3 6.6.1 9.1 1.2 5.1 2.1 5.8 2 5.4-.7-.2-1.4-1.1-2.3-2.5-2.5-1.3-.2-2.3-1-2.3-1.7 0-1.9-3.2-3.5-5.7-2.9-1.2.3-2.4.1-2.7-.5-1-1.6-3.1-1.3-4.9.7zM33.2 44c-1.5 1.6-4.4 4.6-6.4 6.6l-3.7 3.7 4.2 2.1c3 1.5 4.4 3 5 5.2.7 2.4 1.5 3.1 3.6 3.2 6.7.1 22.8.2 24.1 0 .8-.1 3.2.2 5.2.6 3.7.7 3.7.7 2.9-2.1C64.4 50.6 52.9 41.1 41.2 41c-4.7 0-5.7.4-8 3zm13.5.5c5.9 1.8 13.5 8.1 16.4 13.6L65 62l-4.7.2c-14.8.4-24.8-.1-25.2-1.4-.2-.7-1.9-2.8-3.7-4.6-2.4-2.4-2.9-3.4-1.9-3.8.8-.3 2.3-2.1 3.4-4 1.9-3.1 4.8-5.2 7.7-5.3.6-.1 3.3.6 6.1 1.4z"/><path d="M36 52c0 .5.7 1 1.5 1s1.5-.5 1.5-1c0-.6-.7-1-1.5-1s-1.5.4-1.5 1zM27 61.5c-1.3 3.5-.6 5.8 1.7 5.3 1.3-.3 1.7-1.2 1.6-3.2-.3-4.4-2-5.5-3.3-2.1z"/><path d="M8.6 61C2 63-1.2 68.9 1.5 74.2c1.3 2.8 1.3 3.3 0 4.8-3.2 3.5-1 8.6 4.9 11.4 4.5 2.1 8.8 2 13.4-.3 3.1-1.6 3.9-1.7 5-.5.7.8 2.6 1.4 4.2 1.4 1.9 0 3.1.6 3.4 1.8 1.3 4.1 5.5 6.7 10.8 6.7 4.3 0 5.3-.4 7.9-3.3 1.6-1.8 2.9-3.9 2.9-4.8 0-1.2.5-1.3 2.3-.8 1.2.5 3.6.7 5.2.6 1.7-.1 6.6-.1 11-.1 4.4.1 9.4 0 11-.1 4.8-.2 6.8-.1 10.6.6 2.4.4 4.6.1 6.4-.9 2.5-1.3 3.1-1.2 5.7.2 2.6 1.5 3 1.5 5.6 0 2.5-1.4 3.1-1.4 6-.1 6 2.9 11.4-2.4 9.3-9.2-.5-1.7-1.2-4.7-1.5-6.7-1-5.6-3.4-7.1-12-7.5-4.9-.2-8 .2-9.1 1-1.5 1.1-2.3 1-4.7-.2-2.3-1.1-3.8-1.2-7.1-.4-2.2.6-4.5.8-5.1.4-1.9-1.1-14.1-1-16.6.3-2 .9-3 .9-5-.1-3-1.6-6-1.7-9.4-.4-1.7.6-3.5.6-5.2-.1-1.9-.7-3.7-.6-6.1.2-2.6.8-3.8.8-4.6 0-1.5-1.5-6.2-1.4-9.5.3s-6.7.6-7.7-2.4c-.4-1.2-2.5-3-4.8-4.1-4.6-2-5.8-2.1-10.1-.9zm11.2 4.6c3 2 2.6 5.8-.5 6.2-1.7.3-2.6-.3-3.3-2.2-1.1-2.9-3.1-3.4-5-1.1-1.6 2 .1 4.1 4.9 6.1 7.5 3.1 9.2 7.6 4.5 11.3-3.7 2.9-12.1 2.9-15.2.1-2.5-2.3-2.4-2.2-1.6-4.4.9-2.4 4.8-2 5.9.6 1.2 2.7 4.7 3.5 6.4 1.4 1.8-2.1.6-3.4-4.8-5.7C5.9 75.7 4 73.7 4 70.4c0-5.3 10.5-8.5 15.8-4.8zM66.7 72c.7 0 3.3 6.2 3.3 8 0 3.4-5.3 8-9.1 8-3.9 0-6.9-2.4-6.9-5.6 0-2.7 3.2-4.7 7.3-4.6 3 .1 3.2-1.4.4-3.2-1.2-.7-2.5-.7-4.7.1-3 1.1-3.6.8-2.2-1.4 1.3-2 5.5-3.1 8.7-2.2 1.6.5 3.1.9 3.2.9zM86 73c0 1-1.9 3.6-4.2 5.9L77.5 83h4.8c4.8 0 6 1.3 3.5 3.8-1.5 1.5-14.8 1.6-14.8.1 0-2.2 2.2-5.1 6.2-7.9l4.1-3h-5.1c-5.4 0-6.4-1-3.8-3.9 1.1-1.2 2.9-1.5 7.5-1.3 5.1.3 6.1.7 6.1 2.2zm16.3 1.1c2.1 2.6 2.2 6.1.2 9.8-1.6 3.2-3.3 4.1-7.8 4.1-3.7 0-6.7-2.5-6.7-5.6 0-2.7 3.2-4.7 7.3-4.6 3 .1 3.2-1.4.4-3.2-1.2-.7-2.5-.7-4.7.1-1.6.6-3 .8-3 .4 0-1 3.1-3.7 5-4.3 2.4-.8 7.4 1 9.3 3.3zm17.8-3.1c1.5.9 1.9 2.2 1.9 6.8 0 3.2.5 6.3 1.1 6.9 1.4 1.4.3 3.3-2 3.3-2.9 0-4.1-2.2-4.1-7.6 0-2.9-.5-5.6-1.2-6-1.9-1.2-3.8 2.8-3.8 8.3 0 5-.1 5.3-2.5 5.3s-2.5-.2-2.5-6.3c0-3.5-.5-6.8-1.1-7.4-.6-.6-.8-1.6-.5-2.2 1-1.6 5.6-1.3 6.2.3.5 1.2.9 1.1 2.5-.5 2.2-2.2 3.2-2.3 6-.9zM31 77.3c0 3.5.5 6.8 1 7.3 1.4 1.4-1.3 3.7-3.7 3.2-1.5-.3-1.8-1.6-2.1-8.6-.3-8.2-.3-8.2 2.3-8.2 2.4 0 2.5.2 2.5 6.3zm9.4-4.7c.3.9.6 3.8.6 6.5 0 3.4.4 4.9 1.3 4.9 2.5 0 3.7-2.5 3.7-7.7 0-5 .1-5.3 2.5-5.3 2.5 0 2.5 0 2.5 9.9 0 8.4-.3 10.2-2.1 12.5-2.7 3.4-8.8 3.7-12 .5-1.1-1.1-1.8-2.3-1.5-2.7.4-.3 1.2 0 1.8.6.7.7 2.4 1.2 4 1.2 2.9 0 4.8-2.3 4.8-6 0-2-.1-2-2.2-.6-2.5 1.8-4.6 2-6.6.8-1.2-.8-3.4-14-2.5-15.5.8-1.3 5.1-.7 5.7.9z"/><path d="M60.3 80.7c-.7.2-1.3 1.4-1.3 2.5 0 2.9 4.4 2.1 4.8-1 .3-2.2-.8-2.7-3.5-1.5zM94.2 81.2C92.4 83 92.8 85 95 85c2 0 4.4-3.2 3.3-4.4-1-1-2.8-.7-4.1.6zM75 94c0 .5-.6 1-1.4 1-3.5 0-2.7 4.1.9 4.6 1.1.2 1.5-.7 1.5-3.2 0-1.9-.2-3.4-.5-3.4s-.5.4-.5 1zm0 2.9c0 .6-.4 1.3-1 1.6-.5.3-1-.1-1-.9 0-.9.5-1.6 1-1.6.6 0 1 .4 1 .9zM87 94c0 .5-.9 1-2.1 1-3 0-2.2 4.5.9 4.6 1.9.1 2.2-.4 2.2-3.2 0-1.9-.2-3.4-.5-3.4s-.5.4-.5 1zm-.9 3.3c-.1 1.2-1.5.9-1.9-.4-.3-.6.1-1 .8-.8.6.3 1.1.8 1.1 1.2zM89.3 96.5c0 2.2.2 3 .4 1.7.2-1.2.2-3 0-4-.3-.9-.5.1-.4 2.3zM97 95.8c0 1.7.5 3.4 1.1 3.8.8.4.9 0 .4-1.5-.3-1.2-.2-2.1.4-2.1.5 0 1.3.9 1.6 2.1.9 2.7 3.9 2.1 4.3-.9.3-2 0-2.3-2.1-2-1.3.1-3.2-.3-4.1-1.1-1.4-1.2-1.6-1-1.6 1.7zm7 1.7c0 .8-.4 1.5-1 1.5-.5 0-1-.7-1-1.5s.5-1.5 1-1.5c.6 0 1 .7 1 1.5zM79 95.9c1.3.9 1.2 1.1-.3 1.1-2.6 0-1.5 2.4 1.2 2.8 1.9.3 2.2 0 1.9-2-.2-1.4-1.1-2.4-2.3-2.6-1.7-.3-1.7-.1-.5.7zM92.2 97.5c0 1.6.2 2.2.5 1.2.2-.9.2-2.3 0-3-.3-.6-.5.1-.5 1.8zM106.9 97.2c.7 1.9.7 2.8-.2 3.2-.7.2-.5.5.5.5.9.1 2-1.1 2.7-2.9.6-1.8.6-3 0-3-.5 0-.9.8-.9 1.7 0 1.5-.2 1.4-1.5-.3-1.4-1.8-1.5-1.7-.6.8zM112.3 97c.1 1.5.9 2.6 2 2.8 1.3.3 1.7-.3 1.6-2.5-.1-1.7-.3-2.1-.6-1.1-.2 1-.8 1.8-1.3 1.8s-1.1-.8-1.4-1.8c-.3-1-.4-.7-.3.8zM117.4 96.5c-.8 1.9.1 3.1 2.6 3.8 1.7.4 2 0 2-2.4 0-2.2-.5-2.9-2-2.9-1.1 0-2.3.7-2.6 1.5zm3.6.4c0 .6-.4 1.3-1 1.6-.5.3-1-.1-1-.9 0-.9.5-1.6 1-1.6.6 0 1 .4 1 .9z"/></svg>