<svg version="1.2" xmlns="http://www.w3.org/2000/svg" viewBox="0 0 102 80" width="102" height="80">
	<title>New Project</title>
	<style>
		tspan { white-space:pre } 
		.s0 { fill: #ffffff } 
		.s1 { fill: #e89090 } 
		.s2 { fill: #1e1d1d } 
	</style>
	<path id="&lt;Compound Path&gt;" class="s0" d="m70.2 3.7h-33.3c-11.4 0-20.6 9.3-20.6 20.7v24.1 8.8h3.5 67.4 1.8 1.8v-32.9c0-11.4-9.3-20.7-20.6-20.7z"/>
	<g id="Folder 1">
		<filter id="f0">
			<feFlood flood-color="#900000" flood-opacity="1" />
			<feBlend mode="normal" in2="SourceGraphic"/>
			<feComposite in2="SourceAlpha" operator="in" />
		</filter>
		<g id="Folder 2" filter="url(#f0)">
			<path id="&lt;Path&gt;" class="s1" d="m26.7 14v30.9q-1.7 0.3-3.4 0.7v-26.7c0.8-1.9 1.9-3.6 3.4-4.9z"/>
			<path id="&lt;Path&gt;" class="s1" d="m33.9 10.1v17.5q-0.1 0.1-0.2 0.2c-0.8 1.1-1.3 2.4-1.6 3.7-0.4 2-0.1 4.2 0.9 6q-0.3 0.3-0.4 0.8c-0.2 0.4-0.3 0.9-0.3 1.2-0.1 0.7-0.1 1.4-0.1 2v0.4c0 0.2 0.1 0.4 0 0.6 0 0.4-0.3 0.9-0.6 1.2v0.1q-0.1 0.1-0.1 0.1-0.5 0.1-1 0.2v-32.8q1.6-0.8 3.4-1.2z"/>
			<path id="&lt;Path&gt;" class="s1" d="m41 9.8v14.1q-0.1 0-0.3 0-0.3 0-0.6 0-1.3 0-2.4 0.4v-14.5z"/>
			<path id="&lt;Path&gt;" class="s1" d="m48.2 9.8v14.5q-0.4 0-0.9 0-0.3 0-0.6 0-0.7-0.1-1.5-0.2l-0.4-0.1v-14.2z"/>
			<path id="&lt;Path&gt;" class="s1" d="m55.4 9.8v12.9q-0.4 0.1-0.9 0.3l-0.6 0.2q-0.4 0.1-0.9 0.3-0.2 0-0.4 0.1-0.2 0-0.6 0.1v-13.9z"/>
			<path id="&lt;Path&gt;" class="s1" d="m62.6 9.8v5.7c-0.4-0.5-1-0.7-1.6-0.7q-0.5 0-1 0.2c-0.3 0.2-0.6 0.4-0.8 0.6v-5.8z"/>
			<path id="&lt;Path&gt;" class="s1" d="m69.8 9.8v9.3c-0.6-0.3-1.3-0.4-1.9-0.4h-0.1q-0.2-0.1-0.5-0.1h-0.1q-0.3-0.1-0.8-0.1v-8.7z"/>
			<path id="&lt;Path&gt;" class="s1" d="m77 11.4v32.7q-1.7-0.3-3.4-0.6v-18q0.2-0.3 0.4-0.7 0.1-0.1 0.2-0.3 0.1-0.1 0.2-0.1c0.4-0.3 1.1-0.7 1.6-1.4 0.6-0.8 0.9-1.9 0.7-3-0.1-0.7-0.4-1.3-0.7-1.9-0.2-0.6-0.6-1.3-1.3-1.9q-0.5-0.4-1-0.5-0.1 0-0.1 0v-5.6q1.8 0.5 3.4 1.3z"/>
			<path id="&lt;Path&gt;" class="s1" d="m84.2 19.2v26.5q-1.7-0.4-3.4-0.8v-30.8c1.4 1.4 2.6 3.2 3.4 5.1z"/>
		</g>
		<path id="&lt;Compound Path&gt; copy" fill-rule="evenodd" class="s2" d="m90.8 24.4v32.9h-74.5v-32.9c0-11.4 9.2-20.7 20.6-20.7h33.3c11.3 0 20.6 9.3 20.6 20.7zm-3.6 0c0-9.5-7.6-17.1-17-17.1h-33.3c-9.5 0-17.1 7.6-17.1 17.1v24.1q6.5-1.8 12.9-2.9 0 0 0 0c0.2-0.4 0.4-0.7 0.6-0.9 0.4-0.7 0.9-1.5 1-2.3 0-0.4 0-0.8 0-1.2 0-0.6 0-1.2 0.1-1.8q0-0.3 0.1-0.7 0.1-0.3 0.4-0.6 0.2-0.4 0.5-0.8 0.1 0 0.1 0c-1.2-1.6-1.7-3.7-1.4-5.7 0.2-1 0.7-2 1.3-2.9q0.4-0.6 1-1.1 0.1-0.1 0.1-0.2 0.5-0.5 1.1-1c0.7-0.4 1.5-0.6 2.3-0.6 0.5 0 1 0 1.5 0 0.3-0.1 0.6-0.2 0.9-0.2q0.2 0 0.5 0c0.1 0.1 0.2 0.1 0.3 0.1q0.6 0.1 1.1 0.2c0.7 0.1 1.5 0.2 2.2 0.3 1.3 0 2.6-0.1 3.8-0.3 0.8-0.1 1.5-0.1 2.2-0.4 0.4-0.1 0.7-0.1 1.1-0.2q0.5-0.2 1-0.4c1.3-0.4 2.7-0.9 4.2-1.1 0.1 0 0.3-0.1 0.5-0.2 0.1-0.1 0.2-0.3 0.3-0.4 0.3-0.4 0.7-0.6 1-0.9q0.1-0.1 0.2-0.2c0-0.2-0.4-0.4-0.5-0.5q-0.4-0.2-0.6-0.5c-0.2-0.4-0.3-0.8-0.3-1.2 0.1-0.5 0.2-0.9 0.4-1.3q0.3-0.8 0.8-1.5c0.1-0.2 0.2-0.3 0.4-0.4 0.1 0.1 0 0.2 0 0.4-0.2 0.5-0.4 1-0.5 1.5q-0.1 0.7 0.1 1.3c0.1 0.2 0.2 0.4 0.3 0.6 0.2 0.2 0.5 0.3 0.7 0.3 0.6 0.2 1.3 0.2 1.9 0.2 0.3 0 0.6 0 0.8 0 0.2-0.1 0.4-0.2 0.6-0.3 0.4-0.2 0.8-0.3 1.3-0.3 0.2 0 0.5 0 0.7 0.1 0.2 0.1 0.4 0 0.6 0q0.1 0.1 0.2 0 0.6 0 1.2 0.3c0.2 0.1 0.3 0.1 0.4 0.2q0.3 0 0.6 0c0.9-0.1 1.9-0.2 2.9-0.5q0.2 0 0.3-0.2c0.3-0.2 0.3-0.5 0.2-0.9q-0.1-0.7-0.4-1.3c0-0.1 0-0.3 0-0.4 0-0.1 0.1-0.2 0.2-0.2q0.1 0.1 0.1 0.1c0.4 0.3 0.6 0.7 0.8 1.2 0.2 0.4 0.4 0.8 0.5 1.3 0.1 0.4 0 0.9-0.3 1.3-0.5 0.7-1.6 0.8-2 1.6-0.1 0.2-0.1 0.4-0.2 0.6-0.3 0.5-0.8 0.9-1.4 0.9-0.2 0-0.4 0-0.6 0.1-0.2 0.2-0.2 0.4-0.2 0.6q0.1 0.4 0 0.7-0.1 0.9-0.4 1.7c-0.3 0.7-0.7 1.3-0.9 2-0.1 0.4-0.2 0.9-0.4 1.3-0.2 0.6-0.7 1.2-0.8 1.9 0 0.4 0.1 0.8 0.1 1.3-0.1 0.6-0.4 1.1-0.9 1.5-0.1 0.1-0.4 0.2-0.4 0.4-0.1 0.2 0 0.4 0.1 0.6 0 0.3 0 0.7 0.1 1 0.1 0.4 0.3 0.7 0.4 1.1q0.4 0.8 0.9 1.6 0.1 0.2 0.1 0.4c0 0.3-0.1 0.6-0.2 0.9 0 0.2 0.1 0.5 0.1 0.8 0 0.4 0.2 0.8 0.3 1.2 0 0.3 0 0.7 0 1q9.7 1.2 19.4 3.9zm-52.6 20.9q3.7-0.6 7.4-0.9c-0.5-1.1-1.1-2.1-1.7-3.1-0.2-0.3-0.4-0.7-0.4-1.1 0-0.5 0.3-0.9 0.5-1.4 0.2-0.4 0.4-0.9 0.2-1.4-1.1 0.4-1.8 1.5-2.8 2-0.5 0.4-1.2 0.6-1.5 1.1-0.3 0.6-0.1 1.3-0.2 2-0.2 1-1 1.8-1.5 2.8zm22.7-1.4q-0.1-0.5-0.2-0.9c-0.2-1.3-0.2-2.8-1-4q0-0.1-0.1-0.1-0.1-0.1-0.3-0.2-0.5-0.1-1-0.2-1.2-0.2-2.3-0.3-0.6-0.1-1.2-0.1c-0.3 0-0.7 0.1-1 0-1.5-0.3-2.9-0.9-4.5-1.2-0.3-0.1-0.6-0.1-0.9 0-0.5 0.3-0.4 0.7-0.5 1.1-0.1 0.5-0.3 1-0.6 1.4-0.4 0.6-0.8 1.1-0.9 1.8-0.2 0.8 0.1 1.7 0.5 2.5q0.1 0.3 0.3 0.5 6.8-0.5 13.7-0.3zm2-0.7c-0.1 0.3-0.2 0.5-0.4 0.7q0 0 0 0 3.7 0.2 7.4 0.6 0-0.1 0.1-0.2c0.3-0.9-0.2-1.9-0.6-2.7-0.1-0.3-0.3-0.6-0.5-0.8-0.2-0.2-1-1-1.2-0.6-0.2 0.4-0.5 0.7-0.9 0.8q-0.2 0-0.5-0.1-1-0.2-2-0.3c-0.6-0.1-0.9-0.4-1.1 0.3q-0.2 0.6-0.2 1.2c0 0.4 0 0.8-0.1 1.1zm-24.2-12.2q-0.1 0.2-0.2 0.5c-0.2 0.8-0.3 1.7-0.1 2.5 0.2 0.8 0.5 1.5 1 2q0.1-0.6 0-1.2c-0.1-0.6-0.5-1.1-0.6-1.6-0.3-0.7-0.3-1.5-0.1-2.2z"/>
		<path id="MEATEAT" fill-rule="evenodd" class="s2" d="m8.4 76h-5.8v-1.7l1.5-0.2v-10l-1.5-0.3v-1.6h5.6l3.8 9.6h0.1l3.7-9.6h5.6v1.6l-1.5 0.3v10l1.5 0.2v1.7h-5.8v-1.7l1.6-0.2v-2.7l0.1-6.3h-0.1l-4.2 10.7h-2.1l-4.3-10.6 0.1 5.9v3l1.7 0.2zm25.1 0h-11.1v-1.6l1.5-0.3v-10l-1.5-0.2v-1.7h10.9v3.7h-2.2l-0.1-1.6h-4.3v3.5h4.8v2.1h-4.8v4h4.5l0.2-1.7h2.1zm6.1 0h-4.7v-1.6l0.9-0.2 4.5-12h2.9l4.4 12 1 0.2v1.6h-4.8v-1.6l1-0.2-0.6-1.9h-4.9l-0.7 1.9 1 0.2zm1.9-10.5l-1.6 4.7h3.6l-1.6-4.7-0.2-0.5zm15.5 10.5h-5.8v-1.6l1.5-0.3v-9.8h-2.5l-0.2 1.7h-2.1v-3.8h12.5v3.8h-2.1l-0.2-1.7h-2.6v9.8l1.5 0.3zm15.4 0h-11v-1.7l1.4-0.3v-9.9l-1.4-0.3v-1.7h10.8v3.8h-2.1l-0.2-1.6h-4.2v3.4h4.7v2.2h-4.7v3.9h4.5l0.1-1.6h2.1zm6.1 0h-4.7v-1.7l1-0.1 4.4-12.1h2.9l4.4 12.1 1 0.1v1.7h-4.8v-1.7l1-0.1-0.6-2h-4.9l-0.6 2 0.9 0.1zm2-10.5l-1.7 4.7h3.6l-1.6-4.7-0.1-0.4h-0.1zm15.6 10.5h-5.8v-1.7l1.5-0.3v-9.7h-2.6l-0.1 1.6h-2.2v-3.8h12.5v3.8h-2.1l-0.2-1.6h-2.5v9.7l1.5 0.3z"/>
	</g>
</svg>