<?xml version="1.0" encoding="UTF-8"?>
<svg width="29px" height="63px" viewBox="0 0 29 63" version="1.1" xmlns="http://www.w3.org/2000/svg" xmlns:xlink="http://www.w3.org/1999/xlink">
    <!-- Generator: Sketch 48.2 (47327) - http://www.bohemiancoding.com/sketch -->
    <title>Group 15</title>
    <desc>Created with Sketch.</desc>
    <defs></defs>
    <g id="Page-1" stroke="none" stroke-width="1" fill="none" fill-rule="evenodd" fill-opacity="0.249999985">
        <g id="Group-15" transform="translate(-3.000000, 0.000000)" fill="#FFFFFF" fill-rule="nonzero">
            <path d="M28.0390619,6.26423308 C29.4050846,8.68187429 28.2872491,9.60709471 27.1733847,10.2406696 C26.0595203,10.8722331 24.7212945,11.0954928 23.3592428,8.68388564 C21.9872636,6.26624443 21.9356407,1.12523701 21.9356407,1.12523701 C21.9356407,1.12523701 26.6690682,3.84860323 28.0390619,6.26423308 Z" id="Shape" transform="translate(25.302498, 5.893418) scale(-1, 1) rotate(-30.000000) translate(-25.302498, -5.893418) "></path>
            <path d="M19.7836165,9.38848557 C18.6022452,11.9046829 17.218353,11.5064358 16.0707351,10.9472809 C14.9171607,10.3780692 13.9740491,9.39250827 15.1435075,6.88435637 C16.3248788,4.36212503 20.4527294,1.38130617 20.4527294,1.38130617 C20.4527294,1.38130617 20.9570459,6.87429963 19.7836165,9.38848557 Z" id="Shape" transform="translate(17.583945, 6.373086) scale(-1, 1) rotate(-30.000000) translate(-17.583945, -6.373086) "></path>
            <path d="M12.3980158,16.6860361 C10.617024,18.8100203 9.37807313,18.06381 8.41510655,17.2230662 C7.44816897,16.3762884 6.7869981,15.1755131 8.55409142,13.0575629 C10.3311122,10.9255332 15.0883657,9.12738744 15.0883657,9.12738744 C15.0883657,9.12738744 14.1730511,14.5620518 12.3980158,16.6860361 Z" id="Shape" transform="translate(11.269286, 13.597540) scale(-1, 1) rotate(-30.000000) translate(-11.269286, -13.597540) "></path>
            <path d="M21.8529031,18.568776 C24.2930803,20.0089018 23.7947203,21.3766189 23.1434769,22.4888948 C22.490248,23.603182 21.429992,24.468062 18.9937859,23.0339703 C16.5476522,21.5958559 13.8513458,17.1085369 13.8513458,17.1085369 C13.8513458,17.1085369 19.4067695,17.132673 21.8529031,18.568776 Z" id="Shape" transform="translate(18.764328, 20.447033) scale(-1, 1) rotate(-30.000000) translate(-18.764328, -20.447033) "></path>
            <path d="M7.39065067,25.9690526 C5.00408195,27.3528605 4.09075282,26.2265052 3.46134992,25.1021613 C2.83591801,23.9737946 2.61552772,22.6141228 4.99216896,21.2303149 C7.37675219,19.8404729 12.4556563,19.7801324 12.4556563,19.7801324 C12.4556563,19.7801324 9.7752339,24.5812219 7.39065067,25.9690526 Z" id="Shape" transform="translate(7.749878, 23.194682) scale(-1, 1) rotate(-30.000000) translate(-7.749878, -23.194682) "></path>
            <path d="M19.9834887,25.9399446 C21.730727,28.1946666 20.7637894,29.2767722 19.7571419,30.0672322 C18.7465234,30.8637264 17.4360946,31.2659961 15.6967983,29.0193195 C13.9535309,26.7645976 13.0918247,21.5873859 13.0918247,21.5873859 C13.0918247,21.5873859 18.2382358,23.693268 19.9834887,25.9399446 Z" id="Shape" transform="translate(17.020184, 26.142525) scale(-1, 1) rotate(-30.000000) translate(-17.020184, -26.142525) "></path>
            <path d="M5.08295965,34.9290615 C2.37076923,35.4117852 1.89226419,34.038034 1.67584489,32.7648502 C1.4614111,31.4856324 1.70562737,30.1360174 4.3999483,29.6472597 C7.11412421,29.1585019 11.9110876,30.8480349 11.9110876,30.8480349 C11.9110876,30.8480349 7.77926608,34.4382924 5.08295965,34.9290615 Z" id="Shape" transform="translate(6.763560, 32.293267) scale(-1, 1) rotate(-30.000000) translate(-6.763560, -32.293267) "></path>
            <path d="M19.4469448,33.1630847 C20.6402292,35.7617473 19.4469448,36.5904229 18.2874139,37.1274531 C17.1219266,37.6624718 15.7638458,37.7529825 14.5824745,35.166388 C13.3891901,32.5657141 13.7247393,27.3221279 13.7247393,27.3221279 C13.7247393,27.3221279 18.263588,30.5684448 19.4469448,33.1630847 Z" id="Shape" transform="translate(16.811667, 32.376899) scale(-1, 1) rotate(-30.000000) translate(-16.811667, -32.376899) "></path>
            <path d="M22.0556476,40.3536319 C22.5420946,43.1695202 21.1859994,43.6623006 19.9311646,43.8795263 C18.6683878,44.0866952 17.3261911,43.8232085 16.843715,41.0153656 C16.357268,38.191432 18.0092024,33.2113325 18.0092024,33.2113325 C18.0092024,33.2113325 21.567215,37.5337209 22.0556476,40.3536319 Z" id="Shape" transform="translate(19.455529, 38.572835) scale(-1, 1) rotate(-30.000000) translate(-19.455529, -38.572835) "></path>
            <path d="M6.40253387,43.5613734 C3.60496704,43.1410015 3.57518457,41.6767396 3.76777788,40.4035558 C3.97426969,39.1203153 4.64139705,37.9215515 7.4270509,38.3439347 C10.2246177,38.7683293 14.3683523,41.9301695 14.3683523,41.9301695 C14.3683523,41.9301695 9.19215872,43.9837566 6.40253387,43.5613734 Z" id="Shape" transform="translate(9.033810, 40.938129) scale(-1, 1) rotate(-30.000000) translate(-9.033810, -40.938129) "></path>
            <path d="M25.290748,47.4141888 C25.4932688,50.270304 24.0934926,50.6202787 22.8207883,50.7067667 C21.544113,50.7811866 20.2396408,50.3769055 20.0351345,47.5368811 C19.8405557,44.6767432 21.9868791,39.8957672 21.9868791,39.8957672 C21.9868791,39.8957672 25.0941837,44.5641076 25.290748,47.4141888 Z" id="Shape" transform="translate(22.666534, 45.305230) scale(-1, 1) rotate(-30.000000) translate(-22.666534, -45.305230) "></path>
            <path d="M10.3085398,51.5336709 C7.64003031,50.5742575 7.88424658,49.1361432 8.32105616,47.9212885 C8.75985124,46.7024112 9.6473689,45.6544985 12.3019799,46.6058664 C14.9665183,47.5652798 18.433198,51.4713191 18.433198,51.4713191 C18.433198,51.4713191 12.9651362,52.4850388 10.3085398,51.5336709 Z" id="Shape" transform="translate(13.241181, 49.088711) scale(-1, 1) rotate(-30.000000) translate(-13.241181, -49.088711) "></path>
            <path d="M25.5840307,12.0000769 C28.2962211,12.7442759 28.1612073,14.2045151 27.8197016,15.4435059 C27.4742249,16.6925535 26.6700982,17.8068407 23.9698208,17.064653 C21.2477029,16.320454 17.5308504,12.7000262 17.5308504,12.7000262 C17.5308504,12.7000262 22.8738258,11.2578892 25.5840307,12.0000769 Z" id="Shape" transform="translate(22.765580, 14.545543) scale(-1, 1) rotate(-30.000000) translate(-22.765580, -14.545543) "></path>
            <path d="M32.6248232,55.1422879 C32.6248232,55.1422879 25.9900234,59.6419178 17.996408,57.8236585 C17.3689906,58.5799257 18.8819402,59.6861675 18.8819402,59.6861675 C18.8819402,59.6861675 24.3393396,60.4743735 32.6248232,55.1422879 Z" id="Shape" transform="translate(25.234428, 57.434748) scale(-1, 1) rotate(-30.000000) translate(-25.234428, -57.434748) "></path>
        </g>
    </g>
</svg>