<?xml version="1.0" encoding="UTF-8"?>
<svg width="29px" height="63px" viewBox="0 0 29 63" version="1.1" xmlns="http://www.w3.org/2000/svg" xmlns:xlink="http://www.w3.org/1999/xlink">
    <!-- Generator: Sketch 48.2 (47327) - http://www.bohemiancoding.com/sketch -->
    <title>Group 15</title>
    <desc>Created with Sketch.</desc>
    <defs></defs>
    <g id="Page-1" stroke="none" stroke-width="1" fill="none" fill-rule="evenodd" fill-opacity="0.249999985">
        <g id="Group-15" transform="translate(-1.000000, 0.000000)" fill="#FFFFFF" fill-rule="nonzero">
            <path d="M10.2946473,6.26423308 C11.66067,8.68187429 10.5428346,9.60709471 9.42897015,10.2406696 C8.31510571,10.8722331 6.97687998,11.0954928 5.61482828,8.68388564 C4.24284909,6.26624443 4.19122614,1.12523701 4.19122614,1.12523701 C4.19122614,1.12523701 8.92465363,3.84860323 10.2946473,6.26423308 Z" id="Shape" transform="translate(7.558084, 5.893418) rotate(-30.000000) translate(-7.558084, -5.893418) "></path>
            <path d="M17.476308,9.38848557 C16.2949366,11.9046829 14.9110444,11.5064358 13.7634265,10.9472809 C12.6098521,10.3780692 11.6667405,9.39250827 12.8361989,6.88435637 C14.0175703,4.36212503 18.1454208,1.38130617 18.1454208,1.38130617 C18.1454208,1.38130617 18.6497374,6.87429963 17.476308,9.38848557 Z" id="Shape" transform="translate(15.276637, 6.373086) rotate(-30.000000) translate(-15.276637, -6.373086) "></path>
            <path d="M22.7200255,16.6860361 C20.9390337,18.8100203 19.7000828,18.06381 18.7371163,17.2230662 C17.7701787,16.3762884 17.1090078,15.1755131 18.8761011,13.0575629 C20.6531219,10.9255332 25.4103754,9.12738744 25.4103754,9.12738744 C25.4103754,9.12738744 24.4950608,14.5620518 22.7200255,16.6860361 Z" id="Shape" transform="translate(21.591296, 13.597540) rotate(-30.000000) translate(-21.591296, -13.597540) "></path>
            <path d="M17.1848294,18.568776 C19.6250066,20.0089018 19.1266465,21.3766189 18.4754032,22.4888948 C17.8221743,23.603182 16.7619183,24.468062 14.3257121,23.0339703 C11.8795784,21.5958559 9.18327201,17.1085369 9.18327201,17.1085369 C9.18327201,17.1085369 14.7386957,17.132673 17.1848294,18.568776 Z" id="Shape" transform="translate(14.096254, 20.447033) rotate(-30.000000) translate(-14.096254, -20.447033) "></path>
            <path d="M24.7514763,25.9690526 C22.3649076,27.3528605 21.4515785,26.2265052 20.8221756,25.1021613 C20.1967437,23.9737946 19.9763534,22.6141228 22.3529946,21.2303149 C24.7375778,19.8404729 29.816482,19.7801324 29.816482,19.7801324 C29.816482,19.7801324 27.1360596,24.5812219 24.7514763,25.9690526 Z" id="Shape" transform="translate(25.110704, 23.194682) rotate(-30.000000) translate(-25.110704, -23.194682) "></path>
            <path d="M18.803703,25.9399446 C20.5509413,28.1946666 19.5840037,29.2767722 18.5773562,30.0672322 C17.5667377,30.8637264 16.2563089,31.2659961 14.5170126,29.0193195 C12.7737452,26.7645976 11.9120391,21.5873859 11.9120391,21.5873859 C11.9120391,21.5873859 17.0584501,23.693268 18.803703,25.9399446 Z" id="Shape" transform="translate(15.840398, 26.142525) rotate(-30.000000) translate(-15.840398, -26.142525) "></path>
            <path d="M24.4164219,34.9290615 C21.7042315,35.4117852 21.2257265,34.038034 21.0093072,32.7648502 C20.7948734,31.4856324 21.0390897,30.1360174 23.7334106,29.6472597 C26.4475865,29.1585019 31.2445499,30.8480349 31.2445499,30.8480349 C31.2445499,30.8480349 27.1127284,34.4382924 24.4164219,34.9290615 Z" id="Shape" transform="translate(26.097022, 32.293267) rotate(-30.000000) translate(-26.097022, -32.293267) "></path>
            <path d="M18.6841929,33.1630847 C19.8774773,35.7617473 18.6841929,36.5904229 17.524662,37.1274531 C16.3591746,37.6624718 15.0010939,37.7529825 13.8197226,35.166388 C12.6264382,32.5657141 12.9619874,27.3221279 12.9619874,27.3221279 C12.9619874,27.3221279 17.500836,30.5684448 18.6841929,33.1630847 Z" id="Shape" transform="translate(16.048915, 32.376899) rotate(-30.000000) translate(-16.048915, -32.376899) "></path>
            <path d="M16.0051704,40.3536319 C16.4916174,43.1695202 15.1355222,43.6623006 13.8806874,43.8795263 C12.6179106,44.0866952 11.2757139,43.8232085 10.7932378,41.0153656 C10.3067908,38.191432 11.9587252,33.2113325 11.9587252,33.2113325 C11.9587252,33.2113325 15.5167378,37.5337209 16.0051704,40.3536319 Z" id="Shape" transform="translate(13.405052, 38.572835) rotate(-30.000000) translate(-13.405052, -38.572835) "></path>
            <path d="M21.1954965,43.5613734 C18.3979297,43.1410015 18.3681472,41.6767396 18.5607405,40.4035558 C18.7672323,39.1203153 19.4343597,37.9215515 22.2200135,38.3439347 C25.0175803,38.7683293 29.1613149,41.9301695 29.1613149,41.9301695 C29.1613149,41.9301695 23.9851213,43.9837566 21.1954965,43.5613734 Z" id="Shape" transform="translate(23.826772, 40.938129) rotate(-30.000000) translate(-23.826772, -40.938129) "></path>
            <path d="M12.818262,47.4141888 C13.0207828,50.270304 11.6210067,50.6202787 10.3483024,50.7067667 C9.07162708,50.7811866 7.76715483,50.3769055 7.56264852,47.5368811 C7.36806971,44.6767432 9.51439316,39.8957672 9.51439316,39.8957672 C9.51439316,39.8957672 12.6216977,44.5641076 12.818262,47.4141888 Z" id="Shape" transform="translate(10.194048, 45.305230) rotate(-30.000000) translate(-10.194048, -45.305230) "></path>
            <path d="M16.6867595,51.5336709 C14.01825,50.5742575 14.2624663,49.1361432 14.6992759,47.9212885 C15.1380709,46.7024112 16.0255886,45.6544985 18.6801996,46.6058664 C21.344738,47.5652798 24.8114177,51.4713191 24.8114177,51.4713191 C24.8114177,51.4713191 19.3433559,52.4850388 16.6867595,51.5336709 Z" id="Shape" transform="translate(19.619401, 49.088711) rotate(-30.000000) translate(-19.619401, -49.088711) "></path>
            <path d="M12.9134527,12.0000769 C15.6256431,12.7442759 15.4906292,14.2045151 15.1491235,15.4435059 C14.8036469,16.6925535 13.9995201,17.8068407 11.2992427,17.064653 C8.57712479,16.320454 4.86027233,12.7000262 4.86027233,12.7000262 C4.86027233,12.7000262 10.2032477,11.2578892 12.9134527,12.0000769 Z" id="Shape" transform="translate(10.095002, 14.545543) rotate(-30.000000) translate(-10.095002, -14.545543) "></path>
            <path d="M15.0165493,55.1422879 C15.0165493,55.1422879 8.38174951,59.6419178 0.38813413,57.8236585 C-0.239283272,58.5799257 1.27366629,59.6861675 1.27366629,59.6861675 C1.27366629,59.6861675 6.73106569,60.4743735 15.0165493,55.1422879 Z" id="Shape" transform="translate(7.626154, 57.434748) rotate(-30.000000) translate(-7.626154, -57.434748) "></path>
        </g>
    </g>
</svg>